<svg width="570" height="119" viewBox="0 0 570 119" fill="none" xmlns="http://www.w3.org/2000/svg">
<path d="M246.593 107.5H307.593" stroke="#BABABA" stroke-width="2"/>
<path d="M311.593 95.5H242.093C235.248 102.314 236.144 106.275 242.093 113.5H311.593M246.593 102H308.093" stroke="#BABABA" stroke-width="2"/>
<path d="M238.593 91C229.395 102.544 230.22 108.366 238.593 118H318.593C302.093 110 304.593 96 318.593 91H238.593Z" stroke="#BABABA" stroke-width="2"/>
<rect x="422.471" y="24.2515" width="133.541" height="89.1915" rx="4" fill="white" stroke="#BCBCBC" stroke-width="2"/>
<mask id="path-5-inside-1" fill="white">
<rect x="426.554" y="29.331" width="125.376" height="73.9664" rx="1"/>
</mask>
<rect x="426.554" y="29.331" width="125.376" height="73.9664" rx="1" fill="white" stroke="#BCBCBC" stroke-width="4" mask="url(#path-5-inside-1)"/>
<path d="M414.199 108.05C414.149 107.788 414.112 107.549 414.084 107.337H564.406C564.38 107.552 564.345 107.796 564.297 108.062C564.108 109.132 563.73 110.545 562.984 111.947C562.241 113.343 561.139 114.719 559.495 115.749C557.855 116.776 555.618 117.496 552.546 117.496H552.469H552.391H552.31H552.227H552.143H552.056H551.968H551.877H551.785H551.691H551.595H551.497H551.397H551.295H551.192H551.087H550.979H550.87H550.759H550.647H550.532H550.416H550.298H550.178H550.056H549.933H549.807H549.68H549.551H549.421H549.289H549.155H549.019H548.882H548.742H548.602H548.459H548.315H548.169H548.022H547.872H547.721H547.569H547.415H547.259H547.102H546.943H546.782H546.62H546.456H546.291H546.124H545.955H545.785H545.613H545.44H545.265H545.089H544.911H544.732H544.551H544.369H544.185H544H543.813H543.624H543.435H543.244H543.051H542.857H542.661H542.464H542.266H542.066H541.865H541.663H541.459H541.253H541.047H540.839H540.629H540.419H540.206H539.993H539.778H539.562H539.345H539.126H538.906H538.685H538.462H538.239H538.014H537.787H537.56H537.331H537.101H536.869H536.637H536.403H536.168H535.932H535.695H535.457H535.217H534.976H534.734H534.491H534.247H534.001H533.755H533.507H533.258H533.009H532.758H532.506H532.252H531.998H531.743H531.487H531.229H530.971H530.712H530.451H530.19H529.927H529.664H529.399H529.134H528.867H528.6H528.331H528.062H527.792H527.52H527.248H526.975H526.701H526.426H526.15H525.873H525.596H525.317H525.038H524.758H524.476H524.194H523.912H523.628H523.344H523.058H522.772H522.485H522.197H521.909H521.62H521.33H521.039H520.747H520.455H520.162H519.868H519.573H519.278H518.982H518.685H518.388H518.09H517.791H517.492H517.191H516.891H516.589H516.287H515.984H515.681H515.377H515.073H514.767H514.462H514.155H513.848H513.541H513.233H512.924H512.615H512.305H511.995H511.684H511.373H511.061H510.748H510.435H510.122H509.808H509.494H509.179H508.864H508.548H508.232H507.915H507.598H507.281H506.963H506.645H506.326H506.007H505.688H505.368H505.047H504.727H504.406H504.085H503.763H503.441H503.119H502.796H502.473H502.15H501.827H501.503H501.179H500.855H500.53H500.205H499.88H499.555H499.229H498.904H498.578H498.251H497.925H497.598H497.272H496.945H496.617H496.29H495.963H495.635H495.307H494.98H494.652H494.323H493.995H493.667H493.338H493.01H492.681H492.353H492.024H491.695H491.366H491.037H490.709H490.38H490.051H489.722H489.393H489.064H488.735H488.406H488.077H487.748H487.419H487.091H486.762H486.433H486.105H485.776H485.448H485.119H484.791H484.463H484.135H483.807H483.48H483.152H482.825H482.497H482.17H481.843H481.517H481.19H480.864H480.538H480.212H479.886H479.56H479.235H478.91H478.585H478.261H477.937H477.613H477.289H476.965H476.642H476.32H475.997H475.675H475.353H475.031H474.71H474.389H474.069H473.749H473.429H473.11H472.791H472.472H472.154H471.836H471.519H471.202H470.885H470.569H470.254H469.939H469.624H469.31H468.996H468.683H468.37H468.058H467.746H467.435H467.124H466.814H466.504H466.195H465.887H465.579H465.271H464.964H464.658H464.352H464.047H463.743H463.439H463.136H462.833H462.532H462.23H461.93H461.63H461.33H461.032H460.734H460.437H460.14H459.844H459.549H459.255H458.961H458.668H458.376H458.085H457.794H457.504H457.215H456.927H456.639H456.352H456.066H455.781H455.497H455.213H454.931H454.649H454.368H454.088H453.809H453.531H453.253H452.977H452.701H452.426H452.152H451.879H451.607H451.336H451.066H450.797H450.529H450.262H449.996H449.73H449.466H449.203H448.94H448.679H448.419H448.16H447.902H447.645H447.388H447.133H446.88H446.627H446.375H446.124H445.875H445.626H445.379H445.132H444.887H444.643H444.4H444.159H443.918H443.679H443.441H443.204H442.968H442.733H442.5H442.268H442.037H441.807H441.578H441.351H441.125H440.9H440.677H440.454H440.233H440.014H439.795H439.578H439.363H439.148H438.935H438.723H438.513H438.304H438.096H437.89H437.685H437.481H437.279H437.078H436.879H436.681H436.484H436.289H436.095H435.903H435.712H435.523H435.335H435.148H434.963H434.78H434.598H434.417H434.238H434.061H433.885H433.711H433.538H433.366H433.197H433.028H432.862H432.697H432.533H432.371H432.211H432.053H431.896H431.74H431.586H431.434H431.284H431.135H430.988H430.842H430.698H430.556H430.416H430.277H430.14H430.005H429.871H429.739H429.609H429.481H429.354H429.23H429.106H428.985H428.866H428.748H428.632H428.518H428.406H428.295H428.187H428.08H427.975H427.872H427.77H427.671H427.574H427.478H427.384H427.292H427.203H427.115H427.029H426.944H426.862C420.295 117.496 417.159 114.653 415.602 111.921C414.804 110.523 414.401 109.115 414.199 108.05Z" fill="white" stroke="#BCBCBC" stroke-width="2"/>
<path d="M472.988 107.348C472.95 107.157 472.918 106.985 472.891 106.837H505.593C505.566 106.985 505.534 107.157 505.496 107.348C505.365 108.004 505.17 108.874 504.911 109.74C504.651 110.613 504.334 111.453 503.968 112.065C503.58 112.716 503.246 112.93 503.008 112.93H502.995H502.982H502.968H502.954H502.94H502.925H502.909H502.893H502.877H502.86H502.842H502.825H502.806H502.788H502.768H502.749H502.728H502.708H502.687H502.665H502.643H502.621H502.598H502.575H502.551H502.527H502.502H502.477H502.452H502.426H502.4H502.373H502.346H502.318H502.29H502.262H502.233H502.204H502.174H502.144H502.113H502.083H502.051H502.02H501.987H501.955H501.922H501.889H501.855H501.821H501.786H501.752H501.716H501.681H501.645H501.608H501.572H501.534H501.497H501.459H501.421H501.382H501.343H501.304H501.264H501.224H501.183H501.143H501.101H501.06H501.018H500.976H500.933H500.89H500.847H500.803H500.759H500.715H500.671H500.626H500.58H500.535H500.489H500.442H500.396H500.349H500.302H500.254H500.206H500.158H500.109H500.061H500.011H499.962H499.912H499.862H499.812H499.761H499.71H499.659H499.607H499.555H499.503H499.451H499.398H499.345H499.292H499.238H499.184H499.13H499.076H499.021H498.966H498.911H498.856H498.8H498.744H498.687H498.631H498.574H498.517H498.46H498.402H498.344H498.286H498.228H498.169H498.11H498.051H497.992H497.932H497.873H497.813H497.752H497.692H497.631H497.57H497.509H497.448H497.386H497.324H497.262H497.2H497.138H497.075H497.012H496.949H496.886H496.822H496.758H496.694H496.63H496.566H496.502H496.437H496.372H496.307H496.242H496.176H496.11H496.045H495.979H495.912H495.846H495.78H495.713H495.646H495.579H495.512H495.444H495.377H495.309H495.241H495.173H495.105H495.037H494.968H494.9H494.831H494.762H494.693H494.624H494.554H494.485H494.415H494.346H494.276H494.206H494.136H494.065H493.995H493.924H493.854H493.783H493.712H493.641H493.57H493.499H493.427H493.356H493.285H493.213H493.141H493.069H492.997H492.925H492.853H492.781H492.709H492.636H492.564H492.491H492.418H492.346H492.273H492.2H492.127H492.054H491.981H491.908H491.834H491.761H491.688H491.614H491.541H491.467H491.393H491.32H491.246H491.172H491.098H491.025H490.951H490.877H490.803H490.729H490.654H490.58H490.506H490.432H490.358H490.283H490.209H490.135H490.061H489.986H489.912H489.837H489.763H489.689H489.614H489.54H489.465H489.391H489.316H489.242H489.168H489.093H489.019H488.944H488.87H488.795H488.721H488.646H488.572H488.498H488.423H488.349H488.275H488.2H488.126H488.052H487.978H487.904H487.829H487.755H487.681H487.607H487.533H487.459H487.386H487.312H487.238H487.164H487.09H487.017H486.943H486.87H486.796H486.723H486.65H486.576H486.503H486.43H486.357H486.284H486.211H486.138H486.065H485.993H485.92H485.848H485.775H485.703H485.631H485.559H485.487H485.415H485.343H485.271H485.199H485.128H485.056H484.985H484.914H484.843H484.772H484.701H484.63H484.56H484.489H484.419H484.348H484.278H484.208H484.138H484.069H483.999H483.93H483.86H483.791H483.722H483.653H483.584H483.516H483.447H483.379H483.311H483.243H483.175H483.107H483.04H482.972H482.905H482.838H482.771H482.704H482.638H482.571H482.505H482.439H482.373H482.308H482.242H482.177H482.112H482.047H481.982H481.918H481.854H481.79H481.726H481.662H481.598H481.535H481.472H481.409H481.346H481.284H481.222H481.16H481.098H481.036H480.975H480.914H480.853H480.792H480.731H480.671H480.611H480.551H480.492H480.433H480.374H480.315H480.256H480.198H480.14H480.082H480.024H479.967H479.91H479.853H479.797H479.74H479.684H479.628H479.573H479.518H479.463H479.408H479.354H479.3H479.246H479.192H479.139H479.086H479.033H478.981H478.928H478.877H478.825H478.774H478.723H478.672H478.622H478.572H478.522H478.472H478.423H478.375H478.326H478.278H478.23H478.182H478.135H478.088H478.042H477.995H477.949H477.904H477.858H477.813H477.769H477.724H477.681H477.637H477.594H477.551H477.508H477.466H477.424H477.383H477.341H477.301H477.26H477.22H477.18H477.141H477.102H477.063H477.025H476.987H476.95H476.912H476.876H476.839H476.803H476.768H476.732H476.697H476.663H476.629H476.595H476.562H476.529H476.496H476.464H476.433H476.401H476.37H476.34H476.31H476.28H476.251H476.222H476.194H476.166H476.138H476.111H476.084H476.058H476.032H476.007H475.982H475.957H475.933H475.909H475.886H475.863H475.841H475.819H475.797H475.776H475.755H475.735H475.716H475.696H475.678H475.659H475.641H475.624H475.607H475.591H475.575H475.559H475.544H475.53H475.515H475.502H475.489H475.476C475.238 112.93 474.904 112.716 474.515 112.065C474.15 111.453 473.833 110.613 473.573 109.74C473.314 108.874 473.119 108.004 472.988 107.348Z" stroke="#BCBCBC"/>
<rect x="519.892" y="5" width="48.828" height="48.6619" rx="4" fill="white" stroke="#BCBCBC" stroke-width="2"/>
<path d="M525.669 13.1191H546.847" stroke="#BCBCBC" stroke-width="2"/>
<path d="M525.669 23.2515H551.083" stroke="#BCBCBC" stroke-width="2"/>
<path d="M525.669 33.3839H555.319" stroke="#BCBCBC" stroke-width="2"/>
<path d="M525.669 43.5163H559.554" stroke="#BCBCBC" stroke-width="2"/>
<path d="M564.484 17.1721C564.484 20.1525 562.496 22.2515 560.401 22.2515C558.307 22.2515 556.318 20.1525 556.318 17.1721C556.318 14.1916 558.307 12.0927 560.401 12.0927C562.496 12.0927 564.484 14.1916 564.484 17.1721Z" fill="white" stroke="#BCBCBC" stroke-width="2"/>
<path d="M377.65 83V76H341.15C341.15 76 339.65 117.5 346.15 117.5C352.65 117.5 366.65 117.5 371.65 117.5C376.65 117.5 377.65 109 377.65 109M377.65 83C377.65 83 390.65 83 390.65 96C390.65 109 377.65 109 377.65 109M377.65 83V109" stroke="#BABABA" stroke-width="2"/>
<path d="M350.15 89V82.8906H353.4H356.65V89H350.15Z" fill="white"/>
<path d="M353.4 82.8906H356.65V89H350.15V82.8906H353.4ZM353.4 82.8906C353.4 78.1189 353.4 77.8271 353.4 73.0554C358.65 73.0554 359.15 72.4174 359.15 75.4721" stroke="#BABABA"/>
<rect x="1" y="1" width="151.585" height="91.675" rx="5" stroke="#BABABA" stroke-width="2"/>
<rect x="7.39935" y="9.58688" width="138.075" height="69.0369" rx="5" stroke="#BABABA" stroke-width="2"/>
<path d="M80 86C80 88.2091 78.2091 90 76 90C73.7909 90 72 88.2091 72 86C72 83.7909 73.7909 82 76 82C78.2091 82 80 83.7909 80 86Z" stroke="#BABABA" stroke-width="2"/>
<mask id="path-20-inside-2" fill="white">
<rect x="15.822" y="40.531" width="36.9181" height="27.0207" rx="1"/>
</mask>
<rect x="15.822" y="40.531" width="36.9181" height="27.0207" rx="1" fill="white" stroke="#BABABA" stroke-width="4" mask="url(#path-20-inside-2)"/>
<path d="M19.338 49.2162H34.281M19.338 58.8665H39.555M19.338 54.0414H44.3896M19.338 54.0414H44.3896M19.338 54.0414H44.3896" stroke="#BABABA" stroke-width="2"/>
<rect x="43.071" y="43.4261" width="0.879001" height="0.965024" fill="#9B59B6"/>
<rect x="45.7081" y="43.4261" width="0.879001" height="0.965024" fill="#9B59B6"/>
<rect x="48.345" y="43.4261" width="0.879001" height="0.965024" fill="#9B59B6"/>
<rect x="131" y="53" width="29.9968" height="64.3531" rx="4" fill="white" stroke="#BABABA" stroke-width="2"/>
<path d="M130 59.0256H161.286" stroke="#BABABA" stroke-width="2"/>
<path d="M139.244 55.9031H152.753" stroke="#BABABA"/>
<path d="M134.266 73.0769H148.487" stroke="#BABABA"/>
<path d="M134.266 76.98H148.487" stroke="#BABABA"/>
<path d="M134.266 80.8831H148.487" stroke="#BABABA"/>
<path d="M134.266 84.7863H157.731" stroke="#BABABA"/>
<path d="M130 108.205H161.286" stroke="#BABABA" stroke-width="2"/>
<path d="M147.276 112.889C147.276 113.951 146.502 114.731 145.643 114.731C144.784 114.731 144.01 113.951 144.01 112.889C144.01 111.827 144.784 111.047 145.643 111.047C146.502 111.047 147.276 111.827 147.276 112.889Z" fill="white" stroke="#BABABA"/>
<path d="M157.231 77.7606C157.231 80.1162 155.501 81.9444 153.464 81.9444C151.427 81.9444 149.698 80.1162 149.698 77.7606C149.698 75.405 151.427 73.5769 153.464 73.5769C155.501 73.5769 157.231 75.405 157.231 77.7606Z" fill="white" stroke="#BABABA"/>
<path d="M66.5 113V93H84.5V113M66.5 113H84.5M66.5 113L55 114.5V117.5H96.5V114.5L84.5 113" stroke="#BABABA" stroke-width="2"/>
<circle cx="193.5" cy="63.5" r="18.5" stroke="#BABABA" stroke-width="2"/>
<path d="M183.77 67.75C183.974 67.894 184.274 68.038 184.67 68.182C185.078 68.314 185.54 68.38 186.056 68.38C186.608 68.38 187.046 68.284 187.37 68.092C187.706 67.888 187.958 67.594 188.126 67.21C188.306 66.814 188.42 66.328 188.468 65.752C188.528 65.164 188.558 64.486 188.558 63.718V57.22H190.592V63.718C190.592 64.69 190.544 65.578 190.448 66.382C190.352 67.174 190.148 67.852 189.836 68.416C189.524 68.98 189.068 69.418 188.468 69.73C187.868 70.042 187.064 70.198 186.056 70.198C184.976 70.198 184.052 69.934 183.284 69.406L183.77 67.75ZM200.893 60.226C200.773 60.094 200.599 59.956 200.371 59.812C200.143 59.656 199.873 59.512 199.561 59.38C199.261 59.248 198.925 59.14 198.553 59.056C198.193 58.972 197.821 58.93 197.437 58.93C196.585 58.93 195.955 59.086 195.547 59.398C195.151 59.71 194.953 60.142 194.953 60.694C194.953 61.006 195.013 61.264 195.133 61.468C195.265 61.66 195.463 61.834 195.727 61.99C195.991 62.134 196.321 62.266 196.717 62.386C197.113 62.494 197.575 62.614 198.103 62.746C198.751 62.902 199.333 63.076 199.849 63.268C200.377 63.46 200.821 63.694 201.181 63.97C201.541 64.246 201.817 64.588 202.009 64.996C202.213 65.392 202.315 65.878 202.315 66.454C202.315 67.102 202.189 67.66 201.937 68.128C201.697 68.596 201.361 68.98 200.929 69.28C200.509 69.568 200.017 69.784 199.453 69.928C198.889 70.06 198.283 70.126 197.635 70.126C196.663 70.126 195.721 69.982 194.809 69.694C193.909 69.394 193.093 68.962 192.361 68.398L193.279 66.67C193.435 66.826 193.657 67 193.945 67.192C194.245 67.384 194.587 67.564 194.971 67.732C195.367 67.888 195.793 68.026 196.249 68.146C196.705 68.254 197.179 68.308 197.671 68.308C198.463 68.308 199.075 68.17 199.507 67.894C199.939 67.618 200.155 67.21 200.155 66.67C200.155 66.346 200.071 66.076 199.903 65.86C199.747 65.644 199.519 65.458 199.219 65.302C198.919 65.134 198.553 64.984 198.121 64.852C197.689 64.72 197.197 64.582 196.645 64.438C196.009 64.27 195.451 64.096 194.971 63.916C194.503 63.724 194.113 63.496 193.801 63.232C193.489 62.968 193.249 62.662 193.081 62.314C192.925 61.954 192.847 61.522 192.847 61.018C192.847 60.394 192.967 59.842 193.207 59.362C193.447 58.87 193.771 58.462 194.179 58.138C194.599 57.802 195.091 57.55 195.655 57.382C196.219 57.214 196.831 57.13 197.491 57.13C198.355 57.13 199.153 57.268 199.885 57.544C200.617 57.82 201.259 58.162 201.811 58.57L200.893 60.226Z" fill="#BABABA"/>
<circle cx="358.5" cy="42.5" r="18.5" stroke="#BABABA" stroke-width="2"/>
<path d="M347.983 42.68C347.983 42.168 348.075 41.66 348.259 41.156C348.443 40.644 348.711 40.188 349.062 39.788C349.423 39.38 349.859 39.052 350.371 38.804C350.883 38.556 351.463 38.432 352.111 38.432C352.887 38.432 353.551 38.604 354.103 38.948C354.655 39.292 355.071 39.74 355.351 40.292L354.295 41C354.175 40.744 354.031 40.528 353.863 40.352C353.695 40.176 353.511 40.036 353.311 39.932C353.111 39.828 352.903 39.756 352.687 39.716C352.471 39.668 352.263 39.644 352.063 39.644C351.615 39.644 351.223 39.736 350.887 39.92C350.551 40.096 350.267 40.332 350.035 40.628C349.811 40.924 349.639 41.256 349.519 41.624C349.407 41.992 349.351 42.36 349.351 42.728C349.351 43.144 349.419 43.54 349.555 43.916C349.691 44.292 349.879 44.624 350.119 44.912C350.367 45.2 350.659 45.432 350.995 45.608C351.331 45.776 351.699 45.86 352.099 45.86C352.307 45.86 352.519 45.836 352.735 45.788C352.959 45.732 353.171 45.648 353.371 45.536C353.579 45.416 353.767 45.268 353.935 45.092C354.111 44.916 354.255 44.704 354.367 44.456L355.483 45.092C355.347 45.412 355.155 45.696 354.907 45.944C354.659 46.184 354.379 46.388 354.067 46.556C353.755 46.724 353.423 46.852 353.071 46.94C352.727 47.028 352.387 47.072 352.051 47.072C351.451 47.072 350.903 46.944 350.407 46.688C349.911 46.432 349.483 46.1 349.123 45.692C348.763 45.276 348.483 44.808 348.283 44.288C348.083 43.76 347.983 43.224 347.983 42.68ZM361.766 40.484C361.686 40.396 361.57 40.304 361.418 40.208C361.266 40.104 361.086 40.008 360.878 39.92C360.678 39.832 360.454 39.76 360.206 39.704C359.966 39.648 359.718 39.62 359.462 39.62C358.894 39.62 358.474 39.724 358.202 39.932C357.938 40.14 357.806 40.428 357.806 40.796C357.806 41.004 357.846 41.176 357.926 41.312C358.014 41.44 358.146 41.556 358.322 41.66C358.498 41.756 358.718 41.844 358.982 41.924C359.246 41.996 359.554 42.076 359.906 42.164C360.338 42.268 360.726 42.384 361.07 42.512C361.422 42.64 361.718 42.796 361.958 42.98C362.198 43.164 362.382 43.392 362.51 43.664C362.646 43.928 362.714 44.252 362.714 44.636C362.714 45.068 362.63 45.44 362.462 45.752C362.302 46.064 362.078 46.32 361.79 46.52C361.51 46.712 361.182 46.856 360.806 46.952C360.43 47.04 360.026 47.084 359.594 47.084C358.946 47.084 358.318 46.988 357.71 46.796C357.11 46.596 356.566 46.308 356.078 45.932L356.69 44.78C356.794 44.884 356.942 45 357.134 45.128C357.334 45.256 357.562 45.376 357.818 45.488C358.082 45.592 358.366 45.684 358.67 45.764C358.974 45.836 359.29 45.872 359.618 45.872C360.146 45.872 360.554 45.78 360.842 45.596C361.13 45.412 361.274 45.14 361.274 44.78C361.274 44.564 361.218 44.384 361.106 44.24C361.002 44.096 360.85 43.972 360.65 43.868C360.45 43.756 360.206 43.656 359.918 43.568C359.63 43.48 359.302 43.388 358.934 43.292C358.51 43.18 358.138 43.064 357.818 42.944C357.506 42.816 357.246 42.664 357.038 42.488C356.83 42.312 356.67 42.108 356.558 41.876C356.454 41.636 356.402 41.348 356.402 41.012C356.402 40.596 356.482 40.228 356.642 39.908C356.802 39.58 357.018 39.308 357.29 39.092C357.57 38.868 357.898 38.7 358.274 38.588C358.65 38.476 359.058 38.42 359.498 38.42C360.074 38.42 360.606 38.512 361.094 38.696C361.582 38.88 362.01 39.108 362.378 39.38L361.766 40.484ZM369.102 40.484C369.022 40.396 368.906 40.304 368.754 40.208C368.602 40.104 368.422 40.008 368.214 39.92C368.014 39.832 367.79 39.76 367.542 39.704C367.302 39.648 367.054 39.62 366.798 39.62C366.23 39.62 365.81 39.724 365.538 39.932C365.274 40.14 365.142 40.428 365.142 40.796C365.142 41.004 365.182 41.176 365.262 41.312C365.35 41.44 365.482 41.556 365.658 41.66C365.834 41.756 366.054 41.844 366.318 41.924C366.582 41.996 366.89 42.076 367.242 42.164C367.674 42.268 368.062 42.384 368.406 42.512C368.758 42.64 369.054 42.796 369.294 42.98C369.534 43.164 369.718 43.392 369.846 43.664C369.982 43.928 370.05 44.252 370.05 44.636C370.05 45.068 369.966 45.44 369.798 45.752C369.638 46.064 369.414 46.32 369.126 46.52C368.846 46.712 368.518 46.856 368.142 46.952C367.766 47.04 367.362 47.084 366.93 47.084C366.282 47.084 365.654 46.988 365.046 46.796C364.446 46.596 363.902 46.308 363.414 45.932L364.026 44.78C364.13 44.884 364.278 45 364.47 45.128C364.67 45.256 364.898 45.376 365.154 45.488C365.418 45.592 365.702 45.684 366.006 45.764C366.31 45.836 366.626 45.872 366.954 45.872C367.482 45.872 367.89 45.78 368.178 45.596C368.466 45.412 368.61 45.14 368.61 44.78C368.61 44.564 368.554 44.384 368.442 44.24C368.338 44.096 368.186 43.972 367.986 43.868C367.786 43.756 367.542 43.656 367.254 43.568C366.966 43.48 366.638 43.388 366.27 43.292C365.846 43.18 365.474 43.064 365.154 42.944C364.842 42.816 364.582 42.664 364.374 42.488C364.166 42.312 364.006 42.108 363.894 41.876C363.79 41.636 363.738 41.348 363.738 41.012C363.738 40.596 363.818 40.228 363.978 39.908C364.138 39.58 364.354 39.308 364.626 39.092C364.906 38.868 365.234 38.7 365.61 38.588C365.986 38.476 366.394 38.42 366.834 38.42C367.41 38.42 367.942 38.512 368.43 38.696C368.918 38.88 369.346 39.108 369.714 39.38L369.102 40.484Z" fill="#BABABA"/>
</svg>
