<svg width="23" height="22" viewBox="0 0 23 22" fill="none" xmlns="http://www.w3.org/2000/svg">
<path d="M12.7068 13.9939V21.4812H8.9531L8.95336 21.424C8.95499 21.0669 8.95724 20.5553 8.95975 19.9373C8.96475 18.7012 8.97076 17.0389 8.97476 15.3347C8.98149 12.4689 8.98272 9.46197 8.96323 8.17887H12.7063V9.55808V9.55982L12.2787 10.2524H13.1751H13.2063H13.7063V9.85636C13.9978 9.4231 14.3771 8.9496 14.9239 8.5705C15.5151 8.16064 16.3288 7.84287 17.4921 7.84287C18.9453 7.84284 20.1701 8.31458 21.0354 9.25301C21.9044 10.1954 22.467 11.6697 22.467 13.7801V21.4812H18.7126V14.3294C18.7126 13.3228 18.535 12.3974 18.0669 11.7101C17.577 10.9909 16.8118 10.5954 15.804 10.5954C14.22 10.5954 13.2932 11.6733 12.9012 12.6465C12.736 13.0505 12.7068 13.5623 12.7068 13.9939ZM13.5962 10.0217L13.5962 10.0217L13.5962 10.0217ZM1.28448 3.25507C1.28448 2.68441 1.49848 2.20065 1.86282 1.85742C2.22817 1.51325 2.77321 1.28445 3.47573 1.28445C4.17685 1.28445 4.70355 1.51216 5.05597 1.85293C5.40823 2.19354 5.62015 2.67946 5.63438 3.26061C5.63301 3.81627 5.42547 4.29956 5.06511 4.64544C4.70391 4.99211 4.16049 5.22749 3.44437 5.22749H3.41261C2.08231 5.22749 1.28448 4.34016 1.28448 3.25507ZM5.32118 8.17887V21.4812H1.56695V8.17887H5.32118Z" fill="#B8B8B8" stroke="#B8B8B8"/>
</svg>
